# xmcd
#
# Track frame offsets: 
#        150
#        26233
#        41316
#        60144
#        100176
#        115398
#        131258
#        153703
#        191208
#        205277
#        229164
#        246067
#        265526
#        287658
#        307360
#        325753
#        344160
#
# Disc length: 4773 seconds
#
# Revision: 1
# Processed by: cddbd v1.5.2PL0 Copyright (c) Steve Scherf et al.
# Submitted via: ExactAudioCopy v1.3
#
DISCID=fa12a311
DTITLE=Various Artist - Akella Presents - vol.54 - Heavy Blues-Rock  
DTITLE=CD1
DYEAR=2015
DGENRE=Blues-Rock
TTITLE0=Riot Horse - Get Your Hands Up
TTITLE1=Delta Deep - Down In the Delta
TTITLE2=Kamchatka - Made Of Gold
TTITLE3=Vince Agwada - Black Rain
TTITLE4=Phil Rudd - Repo Man
TTITLE5=Pat Travers - I Am Alive
TTITLE6=Larry Miller - I Fight Myself
TTITLE7=Vargas Blues Band (voc. Bobby Alexander) - Your Love Is A Jail
TTITLE8=The Blues Mystery - Son
TTITLE9=Shaggy Dogs - Leave My Heart Alone
TTITLE10=Sideburn - Travellin' Man
TTITLE11=Rob Orlemans and Half Past Midnight - Hear Me Calling
TTITLE12=Elephant Mountain - Love You Anyways
TTITLE13=Blacktop Deluxe - Should Ha' Gone Yesterday
TTITLE14=GT's Boos Band - Letham City Blues
TTITLE15=Innes Sibun - Love Light
TTITLE16=Eric Sardinas and the Big Motor - Trouble
EXTD=
EXTT0=
EXTT1=
EXTT2=
EXTT3=
EXTT4=
EXTT5=
EXTT6=
EXTT7=
EXTT8=
EXTT9=
EXTT10=
EXTT11=
EXTT12=
EXTT13=
EXTT14=
EXTT15=
EXTT16=
PLAYORDER=
